# xmcd CD database file
#
# Track frame offsets:
#	150
#	20619
#	42780
#	65612
#	82667
#	103365
#	125240
#	147525
#
# Disc length: 2257 seconds
#
# Revision: 0
# Processed by: cddbd v1.4PL0 Copyright (c) Steve Scherf et al.
# Submitted via: CDex 1.50
#
DISCID=7208cf08
DTITLE=Grupo Macabila - Te Dejo Libre
DYEAR=1995
DGENRE=Salsa
TTITLE0=Bella Señora
TTITLE1=Te Dejo Libre
TTITLE2=Momentos De Amor
TTITLE3=La Bentana
TTITLE4=Desilusion
TTITLE5=Textraõ
TTITLE6=Llevate MiCorazon
TTITLE7=Descarga En Carnaval
EXTD=YEAR: 1995
EXTT0=
EXTT1=
EXTT2=
EXTT3=
EXTT4=
EXTT5=
EXTT6=
EXTT7=
PLAYORDER=
